<?xml version="1.0" encoding="UTF-8" standalone="no"?>
<svg
   xmlns:dc="http://purl.org/dc/elements/1.1/"
   xmlns:cc="http://creativecommons.org/ns#"
   xmlns:rdf="http://www.w3.org/1999/02/22-rdf-syntax-ns#"
   xmlns:svg="http://www.w3.org/2000/svg"
   xmlns="http://www.w3.org/2000/svg"
   xmlns:sodipodi="http://sodipodi.sourceforge.net/DTD/sodipodi-0.dtd"
   xmlns:inkscape="http://www.inkscape.org/namespaces/inkscape"
   enable-background="new 0 0 512 512"
   height="512px"
   id="Layer_1"
   version="1.1"
   viewBox="0 0 512 512"
   width="512px"
   xml:space="preserve"
   sodipodi:docname="search.svg"
   inkscape:version="0.92.2 (5c3e80d, 2017-08-06)"><metadata
     id="metadata9"><rdf:RDF><cc:Work
         rdf:about=""><dc:format>image/svg+xml</dc:format><dc:type
           rdf:resource="http://purl.org/dc/dcmitype/StillImage" /></cc:Work></rdf:RDF></metadata><defs
     id="defs7" /><sodipodi:namedview
     pagecolor="#ffffff"
     bordercolor="#666666"
     borderopacity="1"
     objecttolerance="10"
     gridtolerance="10"
     guidetolerance="10"
     inkscape:pageopacity="0"
     inkscape:pageshadow="2"
     inkscape:window-width="1533"
     inkscape:window-height="845"
     id="namedview5"
     showgrid="false"
     inkscape:zoom="1.3037281"
     inkscape:cx="276.59799"
     inkscape:cy="152.4575"
     inkscape:window-x="67"
     inkscape:window-y="27"
     inkscape:window-maximized="1"
     inkscape:current-layer="Layer_1" /><g
     id="g813"><path
       style="fill:none;fill-opacity:1;opacity:1;stroke:#ffffff;stroke-opacity:1;stroke-width:4;stroke-miterlimit:4;stroke-dasharray:none"
       id="path2"
       d="M320.913,226.507c0.022,21.651-4.695,39.784-15.146,56.013c-3.742,5.81-2.55,8.812,1.91,13.206  c26.929,26.533,53.571,53.359,80.294,80.101c7.526,7.531,7.729,11.243,0.741,19.402c-2.481,2.897-5.254,5.629-8.247,7.985  c-5.373,4.229-10.117,4.16-15.426-1.233c-27.139-27.576-54.7-54.738-81.869-82.286c-4.136-4.193-6.865-5.336-12.494-1.956  c-69.966,42.02-156.498-5.812-158.882-87.615c-1.494-51.276,40.176-98.76,90.404-104.987  c55.818-6.919,105.888,29.727,116.785,82.585C320.422,214.698,321.142,221.715,320.913,226.507z M146.788,228.876  c-0.024,38.293,31.658,70.1,69.786,70.061c37.851-0.039,70.022-32.216,70.044-70.056c0.022-38.141-31.776-69.804-70.073-69.774  C177.973,159.137,146.812,190.304,146.788,228.876z" /></g></svg>